<?xml version="1.0" standalone="no"?>
<!DOCTYPE svg PUBLIC "-//W3C//DTD SVG 20010904//EN"
 "http://www.w3.org/TR/2001/REC-SVG-20010904/DTD/svg10.dtd">
<svg version="1.0" xmlns="http://www.w3.org/2000/svg"
 width="256.000000pt" height="256.000000pt" viewBox="0 0 256.000000 256.000000"
 preserveAspectRatio="xMidYMid meet">
<metadata>
Created by potrace 1.14, written by Peter Selinger 2001-2017
</metadata>
<g transform="translate(0.000000,256.000000) scale(0.100000,-0.100000)"
fill="#000000" stroke="none">
<path d="M950 2447 c-353 -32 -674 -285 -790 -622 -45 -131 -50 -189 -51 -549
0 -271 4 -357 16 -416 59 -280 233 -511 488 -645 179 -93 286 -111 684 -109
325 1 377 6 503 46 271 86 501 307 597 572 48 134 51 164 52 541 1 284 -1 375
-13 430 -83 389 -374 672 -768 746 -73 13 -588 18 -718 6z m-28 -701 c88 -6
160 -38 207 -92 34 -39 81 -136 81 -169 0 -7 -35 -25 -77 -41 -43 -16 -80 -30
-83 -32 -3 -1 -18 24 -33 57 -34 74 -80 101 -175 101 -101 0 -170 -31 -203
-92 -38 -69 -48 -264 -19 -357 29 -93 119 -138 256 -128 109 8 159 51 168 145
l4 40 -133 -2 -133 -1 1 86 1 85 186 -2 c234 -2 217 0 245 -28 23 -24 24 -29
20 -129 -2 -57 -9 -117 -15 -133 -6 -16 -11 -31 -11 -34 2 -42 -46 -118 -95
-152 -67 -45 -136 -59 -285 -59 -113 1 -185 14 -254 48 -84 42 -116 83 -152
192 -21 65 -26 325 -8 411 27 125 84 204 181 250 51 23 79 30 164 37 36 3 67
7 68 8 2 2 9 2 15 0 7 -2 42 -6 79 -9z m629 -44 c13 -26 58 -108 100 -184 l76
-137 41 77 c64 118 111 203 138 249 l25 43 115 -1 115 0 -29 -52 c-16 -29 -59
-104 -97 -167 -37 -63 -100 -169 -139 -235 l-70 -120 -1 -175 0 -175 -100 0
-100 0 0 175 c-1 127 -5 182 -14 200 -8 14 -71 122 -141 240 -70 118 -139 236
-153 262 l-26 48 117 -1 118 -1 25 -46z"/>
</g>
</svg>
